<svg width="24" height="25" viewBox="0 0 24 25" fill="none" xmlns="http://www.w3.org/2000/svg">
<path d="M17.232 14.54C17.328 13.748 17.4 12.956 17.4 12.14C17.4 11.324 17.328 10.532 17.232 9.74003H21.288C21.48 10.508 21.6 11.312 21.6 12.14C21.6 12.968 21.48 13.772 21.288 14.54M15.108 21.212C15.828 19.88 16.38 18.44 16.764 16.94H20.304C19.152 18.92 17.316 20.456 15.108 21.212ZM14.808 14.54H9.19201C9.072 13.748 9 12.956 9 12.14C9 11.324 9.072 10.52 9.19201 9.74003H14.808C14.916 10.52 15 11.324 15 12.14C15 12.956 14.916 13.748 14.808 14.54ZM12 21.692C11.004 20.252 10.2 18.656 9.70802 16.94H14.292C13.8 18.656 12.996 20.252 12 21.692ZM7.2 7.34001H3.69602C4.83601 5.34803 6.68402 3.81201 8.88002 3.06802C8.16002 4.40002 7.62002 5.84002 7.2 7.34001ZM3.69602 16.94H7.2C7.62002 18.44 8.16002 19.88 8.88002 21.212C6.68402 20.456 4.83601 18.92 3.69602 16.94ZM2.71201 14.54C2.52 13.772 2.40002 12.968 2.40002 12.14C2.40002 11.312 2.52 10.508 2.71201 9.74003H6.768C6.67201 10.532 6.60001 11.324 6.60001 12.14C6.60001 12.956 6.67201 13.748 6.768 14.54M12 2.57603C12.996 4.01603 13.8 5.62402 14.292 7.34001H9.70802C10.2 5.62402 11.004 4.01603 12 2.57603ZM20.304 7.34001H16.764C16.38 5.84002 15.828 4.40002 15.108 3.06802C17.316 3.82402 19.152 5.34803 20.304 7.34001ZM12 0.140015C5.364 0.140015 0 5.54001 0 12.14C0 18.764 5.37601 24.14 12 24.14C18.624 24.14 24 18.764 24 12.14C24 5.51602 18.624 0.140015 12 0.140015Z" fill="#0A001B"/>
</svg>
