<svg width="26" height="26" viewBox="0 0 26 26" fill="none" xmlns="http://www.w3.org/2000/svg">
<path d="M13.3302 0.851929C10.3374 0.850934 7.44203 1.91522 5.16239 3.85423C2.88275 5.79324 1.36771 8.48037 0.888537 11.4345C0.409359 14.3886 0.997328 17.4169 2.54718 19.9771C4.09702 22.5372 6.50754 24.4622 9.34716 25.4072C9.97309 25.5241 10.2068 25.1339 10.2068 24.8001C10.2068 24.4996 10.1963 23.5086 10.1901 22.4549C6.68486 23.2165 5.94627 20.9694 5.94627 20.9694C5.37249 19.5089 4.54627 19.125 4.54627 19.125C3.4029 18.3425 4.63181 18.3592 4.63181 18.3592C5.89828 18.4489 6.56385 19.657 6.56385 19.657C7.68844 21.5828 9.51199 21.0278 10.2297 20.7002C10.3445 19.8865 10.67 19.3315 11.0309 19.0165C8.24135 18.7014 5.28904 17.6206 5.28904 12.7926C5.27031 11.5386 5.7359 10.3257 6.58889 9.40633C6.45744 9.08919 6.02555 7.80811 6.7099 6.06803C6.7099 6.06803 7.76773 5.73002 10.1755 7.35953C12.2414 6.79479 14.421 6.79479 16.4869 7.35953C18.8822 5.73837 19.9484 6.06803 19.9484 6.06803C20.6327 7.80394 20.2029 9.08501 20.0715 9.40633C20.9221 10.3252 21.3861 11.5364 21.3671 12.7884C21.3671 17.629 18.4211 18.6931 15.6148 19.006C16.0655 19.3962 16.4682 20.164 16.4682 21.3387C16.4682 23.0245 16.4557 24.3828 16.4557 24.7959C16.4557 25.1318 16.681 25.5241 17.3194 25.401C20.1549 24.4523 22.5607 22.5263 24.1067 19.967C25.6528 17.4078 26.2383 14.3822 25.7587 11.4309C25.2791 8.47965 23.7657 5.79511 21.4888 3.8571C19.212 1.91908 16.3201 0.8539 13.3302 0.851929Z" fill="#0A001B"/>
</svg>
